<svg width="169" height="83" viewBox="0 0 169 83" fill="none" xmlns="http://www.w3.org/2000/svg">
<path d="M36.8784 31.4708H29.5757M58.7863 31.4708H51.4836M7.66779 41.8458C7.66779 60.9462 24.0147 76.4292 44.181 76.4292C64.3472 76.4292 80.6942 60.9462 80.6942 41.8458C80.6942 22.7455 64.3472 7.26251 44.181 7.26251C24.0147 7.26251 7.66779 22.7455 7.66779 41.8458ZM51.4836 45.3042H36.8784V55.6792C36.8784 57.9859 38.3389 62.5958 44.181 62.5958C50.0231 62.5958 51.4836 57.9859 51.4836 55.6792V45.3042Z" stroke="#D64D00" stroke-width="5" stroke-linecap="round" stroke-linejoin="round"/>
<path d="M101.872 62.5051L105.757 54.4091M140.736 62.5051L136.851 54.4091M136.851 54.4091L121.301 22.008L105.753 54.4022M136.848 54.4022H105.757M144.625 29.3742C144.625 16.4919 166 16.4919 166 29.3742C166 38.5768 156.287 36.7405 156.287 47.7795M156.284 62.5431L156.32 62.5016" stroke="#D64D00" stroke-width="5" stroke-linecap="round" stroke-linejoin="round"/>
</svg>
